<svg xmlns="http://www.w3.org/2000/svg" viewBox="0 0 77 47.63"><defs><style>.cls-1{fill:#f33;}</style></defs><title>Asset 3</title><g id="Layer_2" data-name="Layer 2"><g id="Layer_1-2" data-name="Layer 1"><path class="cls-1" d="M77,24.05v7.13s.48,8.08-3.33,13.3-10,2.38-10,2.38c-5.23-1.43-20-15.68-20-15.68a2.94,2.94,0,0,1-1.9,1H35.17a2.94,2.94,0,0,1-1.9-1s-14.73,14.25-20,15.68c0,0-6.18,2.85-10-2.38S0,31.18,0,31.18V16.45S-.46,8.38,3.34,3.15s10-2.38,10-2.38c5.23,1.43,20,15.68,20,15.68a2.94,2.94,0,0,1,1.9-1h6.65a2.94,2.94,0,0,1,1.9,1S58.45,2.2,63.68.78c0,0,6.18-2.85,10,2.38S77,16.45,77,16.45v7.13"/></g></g></svg>